<?xml version="1.0" encoding="utf-8"?>
<!-- Generator: Adobe Illustrator 28.1.0, SVG Export Plug-In . SVG Version: 6.00 Build 0)  -->
<svg version="1.1" xmlns="http://www.w3.org/2000/svg" xmlns:xlink="http://www.w3.org/1999/xlink" x="0px" y="0px"
     viewBox="0 0 2000 2000" style="enable-background:new 0 0 2000 2000;" xml:space="preserve">

	<path d="M1794.1,162.64L1480.67,5.87c-7.72-3.86-16.23-5.87-24.86-5.87H558.92c-9.92,0-19.7,2.32-28.56,6.78
		L217.83,163.94c-13.38,6.73-21.31,20.94-20.01,35.87l60.36,693.04c1.21,13.8,8.68,26.27,20.27,33.85
		c53.34,34.87,195.15,155.74,32.46,377.87c-5.55,7.58-8.06,16.98-6.97,26.32l45.7,391.23c1.6,13.7,10.6,25.42,23.43,30.5
		l615.73,243.71c11.09,4.39,23.45,4.4,34.55,0.01l616.72-243.53c11.6-4.58,19.78-15.15,21.3-27.53l48.76-395.58
		c1.11-9.02-1.45-18.11-7.07-25.25c-37.27-47.27-170.15-241.18,33.22-379.9c12.42-8.47,20.45-22,21.72-36.97l57.74-686.39
		C1817.09,185.13,1808.52,169.86,1794.1,162.64z M1452.68,1633.04l-307.54,0.28c-4.19,0-7.06-4.26-5.47-8.14
		c8.89-21.81,46.99-76.91,38.99-103.92c-22.5-75.9-127.45-366.09-141.58-407.38c-1.14-3.34-5.35-4.4-8.04-2.11l-109.51,94.33
		l-2.01,312.16c0,0,21.58,70.27,60.5,105.94c3.53,3.23,1.21,9.12-3.57,9.12H669.1c-5.98,0-9.51-6.7-6.14-11.63
		c15.64-22.85,58.47-81.9,58.47-99.43c0-21.65-0.89-953.77-0.99-1063.93c-0.01-7.34-1.1-14.63-3.25-21.65
		c-8.17-26.86-31.13-95.41-59.8-122.72c0,0-0.08-0.08-0.21-0.23c-6.94-7.75-1.34-20.08,9.07-20.08h410.35
		c0,0,357.21-14.09,259.22,383.93c-16.92,68.72-43.98,134.54-79.55,195.73c-22.71,39.07-50.72,83.9-67.61,98.68l207.1,579.29
		c0,0,34.86,48.42,56.03,70.03C1455.83,1625.43,1458.45,1632.8,1452.68,1633.04z"/>
    <path d="M1146.8,601.93c-0.47,10.44-0.65,20.87-0.74,31.32c-1.62,201.55-229.54,337.63-229.54,337.63V449.72h103.95
		c12.61,0,25.22,1.54,37.38,4.91C1143.63,478.43,1148.34,567.35,1146.8,601.93z"/>

</svg>