<?xml version="1.0" encoding="UTF-8" standalone="no"?>
<!DOCTYPE svg PUBLIC "-//W3C//DTD SVG 1.1//EN" "http://www.w3.org/Graphics/SVG/1.1/DTD/svg11.dtd">
<svg xmlns="http://www.w3.org/2000/svg" version="1.1" viewBox="0.00 0.00 256.00 256.00">
<path fill="#ffffff" d="
  M 0.09 0.00
  L 256.03 0.00
  L 224.81 54.07
  Q 224.54 54.53 224.01 54.53
  L 159.49 54.53
  A 0.29 0.29 0.0 0 0 159.20 54.82
  L 159.21 190.22
  Q 159.21 190.83 158.60 190.77
  Q 148.75 189.82 137.70 185.52
  Q 115.70 176.97 97.25 162.57
  A 0.99 0.96 -71.9 0 1 96.87 161.79
  L 96.88 55.08
  Q 96.88 54.53 96.33 54.53
  L 32.03 54.53
  A 0.87 0.85 74.7 0 1 31.29 54.10
  L 0.09 0.00
  Z"
/>
<path fill="#ffffff" d="
  M 191.62 256.00
  L 182.75 256.00
  Q 165.31 255.01 148.37 250.58
  Q 115.94 242.10 87.22 224.85
  Q 75.95 218.08 65.97 209.72
  Q 61.87 206.28 59.08 202.73
  Q 57.61 200.86 59.96 201.23
  C 60.66 201.34 61.86 201.72 62.48 202.08
  C 84.21 215.00 107.63 226.02 131.72 232.04
  Q 139.44 233.97 147.38 234.70
  Q 150.85 235.02 154.13 234.17
  A 1.09 1.09 0.0 0 0 154.62 232.33
  Q 152.45 230.24 149.63 229.31
  Q 113.29 217.29 81.60 195.56
  C 62.83 182.68 45.36 167.28 32.10 148.95
  C 19.94 132.15 7.49 104.35 28.80 89.32
  C 41.26 80.53 59.66 79.99 73.91 84.16
  Q 74.41 84.31 74.62 84.80
  A 0.54 0.54 0.0 0 1 74.07 85.55
  C 65.04 84.68 56.01 84.84 47.74 87.95
  C 37.51 91.80 32.42 99.82 34.16 111.29
  C 35.36 119.16 39.27 126.84 43.56 133.20
  Q 52.19 145.97 64.76 157.61
  Q 85.98 177.27 113.47 192.47
  Q 134.17 203.92 155.74 209.00
  Q 170.12 212.38 182.37 211.25
  C 197.09 209.89 208.51 201.60 205.08 184.92
  C 203.20 175.78 197.19 166.65 191.23 158.95
  Q 190.70 158.26 190.71 157.40
  A 0.53 0.53 0.0 0 1 191.51 156.96
  C 193.32 158.06 195.18 159.27 196.74 160.71
  Q 208.83 171.94 217.35 188.40
  Q 218.08 189.81 219.45 190.63
  A 1.47 1.47 0.0 0 0 221.67 189.55
  Q 222.37 183.70 219.86 177.14
  C 213.96 161.71 203.41 147.99 191.46 136.13
  Q 186.23 130.93 181.37 125.87
  Q 180.63 125.10 180.67 124.76
  Q 180.81 123.59 181.89 124.16
  Q 190.29 128.59 197.59 134.13
  Q 215.07 147.40 227.65 165.02
  C 236.94 178.04 244.46 193.67 245.22 209.30
  C 246.23 230.25 234.46 245.51 215.22 251.83
  Q 203.74 255.59 191.62 256.00
  Z"
/>
</svg>
