<?xml version="1.0" encoding="UTF-8" standalone="no"?>
<svg
   xmlns:dc="http://purl.org/dc/elements/1.1/"
   xmlns:cc="http://creativecommons.org/ns#"
   xmlns:rdf="http://www.w3.org/1999/02/22-rdf-syntax-ns#"
   xmlns:svg="http://www.w3.org/2000/svg"
   xmlns="http://www.w3.org/2000/svg"
   viewBox="0 0 1066.6667 1066.6667"
   height="1066.6667"
   width="1066.6667"
   xml:space="preserve"
   id="svg2"
   version="1.1"><metadata
     id="metadata8"><rdf:RDF><cc:Work
         rdf:about=""><dc:format>image/svg+xml</dc:format><dc:type
           rdf:resource="http://purl.org/dc/dcmitype/StillImage" /></cc:Work></rdf:RDF></metadata><defs
     id="defs6"><clipPath
       id="clipPath18"
       clipPathUnits="userSpaceOnUse"><path
         id="path16"
         d="M 0,800 H 800 V 0 H 0 Z" /></clipPath></defs><g
     transform="matrix(1.3333333,0,0,-1.3333333,0,1066.6667)"
     id="g10"><g
       id="g12"><g
         clip-path="url(#clipPath18)"
         id="g14"><g
           transform="translate(765.5,411.9385)"
           id="g20"><path
             id="path22"
             style="fill:#ff4655;fill-opacity:1;fill-rule:nonzero;stroke:none"
             d="m 0,0 v 282.801 c 0,7.529 -7.529,7.529 -11.293,3.764 L -320.21,-101.639 v -4 c 0,-3.763 0,-3.763 3.765,-3.763 h 225.864 c 4,0 11.528,3.763 15.293,7.763 l 71.523,90.347 C -3.765,-7.528 0,-3.764 0,0 m -727.235,-11.292 233.628,-294.095 c 3.764,-3.763 7.528,-7.528 15.057,-7.528 h 222.335 c 3.765,0 7.529,3.765 3.765,7.528 l -471.021,591.952 c -3.764,3.765 -7.529,3.765 -7.529,-3.764 V 0 c 0,-3.764 0,-7.528 3.765,-11.292" /></g></g></g></g></svg>