<?xml version="1.0" encoding="UTF-8" standalone="no"?>
<svg
   xmlns:dc="http://purl.org/dc/elements/1.1/"
   xmlns:cc="http://creativecommons.org/ns#"
   xmlns:rdf="http://www.w3.org/1999/02/22-rdf-syntax-ns#"
   xmlns:svg="http://www.w3.org/2000/svg"
   xmlns="http://www.w3.org/2000/svg"
   viewBox="0 0 266.66666 266.66666"
   height="266.66666"
   width="266.66666"
   xml:space="preserve"
   id="svg2"
   version="1.1"><metadata
     id="metadata8"><rdf:RDF><cc:Work
         rdf:about=""><dc:format>image/svg+xml</dc:format><dc:type
           rdf:resource="http://purl.org/dc/dcmitype/StillImage" /></cc:Work></rdf:RDF></metadata><defs
     id="defs6"><clipPath
       id="clipPath22"
       clipPathUnits="userSpaceOnUse"><path
         id="path20"
         d="M 0,200 H 200 V 0 H 0 Z" /></clipPath></defs><g
     transform="matrix(1.3333333,0,0,-1.3333333,0,266.66667)"
     id="g10"><g
       transform="translate(116.4229,56.8662)"
       id="g12"><path
         id="path14"
         style="fill:#4ac5f2;fill-opacity:1;fill-rule:nonzero;stroke:none"
         d="M 0,0 12.195,-30.732 H 32.196 L 40.977,0 Z" /></g><g
       id="g16"><g
         clip-path="url(#clipPath22)"
         id="g18"><g
           transform="translate(95.9355,85.1592)"
           id="g24"><path
             id="path26"
             style="fill:#4ac5f2;fill-opacity:1;fill-rule:nonzero;stroke:none"
             d="m 0,0 c -7.317,18.049 -16.098,41.952 -13.659,43.903 0.976,0.975 5.854,-3.415 13.171,-16.098 C 0.488,26.342 0,28.293 0,29.269 V 98.05 h -28.781 c -1.463,0 -1.951,0 -1.951,-0.488 -0.488,-0.488 0,-0.976 0,-1.952 9.268,-27.804 13.17,-43.415 11.219,-44.878 -0.975,-0.976 -5.853,6.342 -13.658,22.927 -11.708,25.366 -19.025,39.513 -20,38.537 -1.464,-0.975 6.829,-26.829 27.805,-84.879 6.829,-19.024 9.268,-28.781 7.804,-29.756 -1.463,-0.976 -5.365,5.366 -11.219,17.073 -6.829,13.659 -9.756,19.025 -10.732,19.025 -0.975,-0.488 1.464,-9.268 5.854,-21.952 6.342,-20 17.073,-54.635 15.122,-56.098 -0.976,-0.488 -4.39,4.878 -11.219,20 -1.464,3.415 -2.44,4.878 -2.44,4.878 0,0 -0.488,-0.487 -0.488,-1.463 v -22.439 l -7.804,-16.098 h 36.097 c -9.268,26.829 -12.195,39.025 -10.731,39.513 1.951,0.976 9.756,-14.635 19.512,-39.513 9.268,-4.39 20.976,-15.61 27.805,-21.951 1.463,-1.464 1.951,-1.464 1.463,0 C 25.366,-61.952 14.634,-36.098 0,0" /></g></g></g></g></svg>